<svg version="1.2" xmlns="http://www.w3.org/2000/svg" viewBox="0 0 950 240" width="950" height="240">
	<title>logo-svg</title>
	<style>
		.s0 { fill: #ffcc00 }
		.s1 { fill: #ef7d00 }
		.s2 { fill: #abd2eb }
		.s3 { fill: #4b4445 }
		.s4 { fill: #fff }
	</style>
	<path id="Layer" class="s0" d="m53.2 42.7c4.3 9.2 9 19.2 13.5 28h124.9c1.1-7.7 2.1-18.4 2.9-28z"/>
	<path id="Layer" class="s1" d="m195.9 16.4h-151.8c1.7 3.3 3.6 7.1 5.5 11.2h145.5c0.4-4.5 0.7-8.4 0.8-11.2z"/>
	<path id="Layer" class="s2" d="m85.7 99.4c13.6 3.5 100.1-9.4 103.6-15.2 0.3-0.6 0.6-1.6 1-3h-119.5c5.5 9.9 10.8 17.2 14.9 18.2z"/>
	<path id="Layer" fill-rule="evenodd" class="s3" d="m227.7 7.4c0 2.1-1.7 3.7-3.8 3.7-6.7 0-9.8 11-11.5 24.1h1.8c2.1 0 3.8 1.6 3.8 3.7 0 2.1-1.7 3.8-3.8 3.8h-2.6c-0.5 5-0.8 10.1-1.1 14.7-0.3 4.9-0.6 9.3-1 13.3h2.5c2.1 0 3.8 1.7 3.8 3.8 0 2-1.7 3.7-3.8 3.7h-3.3q-0.3 1.9-0.6 3.5 0 0 0 0.1 0 0.2-0.1 0.3 0 0.3-0.1 0.6c-6.5 34.9-61.2 45.7-101.2 53.5-14.7 2.9-34.8 6.9-36.5 10.3 0.8 1.9 9.8 3.7 19.9 3.2 0 0 0.1 0 0.1 0 0 0 90.7 0 90.7 0 0 0 23.5 0 23.5 0 2.1 0 3.8 1.7 3.8 3.7 0 2.1-1.7 3.8-3.8 3.8h-19.7v4.7c3.7 1.5 6.3 5.1 6.3 9.3 0 5.6-4.5 10.1-10.1 10.1-5.6 0-10.1-4.5-10.1-10.1 0-4.2 2.6-7.8 6.3-9.3v-4.7h-83.1v4.7c3.7 1.5 6.3 5.1 6.3 9.3 0 5.6-4.5 10.1-10.1 10.1-5.5 0-10.1-4.5-10.1-10.1 0-4.2 2.7-7.8 6.4-9.3v-4.6c-6.5 0-17.5-0.8-21.8-5.6-1.7-1.9-2.3-4.1-1.9-6.6 1.4-7.9 14.8-10.8 42.4-16.3 28.6-5.6 65.2-12.8 83.8-28.8-25.4 8.5-73.8 14.8-97 14.8-13.4 0-23.6-15.9-34.4-36.6h-5.1c-2.1 0-3.8-1.6-3.8-3.7 0-2.1 1.7-3.8 3.8-3.8h1.3q-1.6-3.2-3.2-6.4c-3.5-7.2-7.2-14.6-11.1-21.6h-5.7c-2 0-3.7-1.7-3.7-3.8 0-2 1.7-3.7 3.7-3.7h1.4c-9.3-15.7-19.6-27.8-31.2-27.8-2.1 0-3.7-1.7-3.7-3.7 0-2.1 1.6-3.8 3.7-3.8 16.3 0 28.8 15.5 40 35.3h160.8c2.1-17.3 6.6-31.6 19.1-31.6 2.1 0 3.8 1.7 3.8 3.8zm-135.7 99.8c32.8 0 97.4-11 106.1-19.7 0.9-1 1.7-3 2.3-5.6q0.1-0.5 0.2-1 0.2-1.2 0.4-2.6h-134.8c8.5 16 17.2 28.9 25.8 28.9zm112-64.5h-155.9c3.1 5.9 6.2 12.1 9.3 18.2q2.4 5 4.9 9.8h139.7c0.4-4.5 0.7-9.3 1-13.8 0.3-4.6 0.6-9.5 1-14.2z"/>
	<g id="Layer">
		<path id="Layer" class="s4" d="m305.6 175.6q-14 0-22.2-2.2-8.2-2.3-8.2-6.4 0-2.1 3.2-7.2 3.1-5.1 4.8-5.1 2.6 0 2.6 1.1 0 0.7-0.8 1.5-0.7 0.9-0.7 1.7 0 0.7 2.7 2 2.7 1.3 8.3 2.3 5.6 1.1 13.6 1.1 12.7 0 22.3-4.9 9.6-5 14.7-12.5 5.2-7.6 5.2-14.7 0-9.2-8.9-15.9-9-6.7-28.8-12.7-19.2-6.3-29.6-10.5-10.5-4.2-17-10.3-6.4-6.2-6.4-15 0-11.9 13.3-23.4 13.4-11.5 33-18.7 19.6-7.3 36.4-7.3 8.6 0 9.3 3.5 0.6 3.4 0.6 7.7 0 3.3-2.3 3.3-1.1 0-2.5-0.8-1.4-0.7-2.5-1.2-1.3-0.4-3-0.8-1.7-0.5-5-0.5-11.2 0-26.9 5.9-15.7 5.8-27.3 14.4-11.5 8.6-11.5 16.6 0 6.5 5.3 11.2 5.3 4.7 14.1 8.1 8.8 3.3 25 8.3 23.7 6.9 35 15.5 11.3 8.6 11.3 21.1 0 10.8-7.2 21.2-7.2 10.5-20.3 17.1-13 6.5-29.6 6.5z"/>
		<path id="Layer" class="s4" d="m469.8 177.8q-2.1 0-3.6-1-1.5-1-1.5-2.7l0.4-14.9q1.1-26.5 1.1-43.3 0-24.5-3.5-34.3-3.4-9.9-7.9-9.9-10.2 0-25.5 31.4-15.3 31.4-29.5 68.4-1.1 3-2.9 5.8-1.8 2.8-3.8 2.8-4.7 0-4.7-3 0-13.1-1.1-49.2-1.1-36.1-1.7-47.5-2-38.6-3.7-47.7-1.7-9-1.7-9.7 0-2.1 2.4-3.2 2.3-1.1 6-1.1 3 0 4.4 13.7 1.4 13.7 2.1 35l0.2 6.1q0.4 6.6 0.7 38.2 0.2 31.6 0.2 46.4 9.9-24.7 18.6-44.1 8.7-19.4 20.2-36.3 11.4-17 21.1-17 8.2 0 13.8 13.7 5.6 13.7 5.6 40.9 0 12 0.4 33.6l0.2 22.6q0 2.6-1.7 4.4-1.8 1.9-4.6 1.9z"/>
		<path id="Layer" class="s4" d="m527.4 170q-14.5 0-21.4-8-6.9-7.9-6.9-19.8 0-10.3 3.8-25.6 3.8-15.3 10.7-27.4 0.4-0.8 3.5-6.4 3.2-5.4 7-8.4 3.9-2.9 8.2-2.9 2 0 3.6 1 1.6 1 1.6 2.5 0 0.4-1.2 2-1.2 1.7-1.8 2.5-7.4 8.9-11.9 17.5-6 11-9.4 21.7-3.3 10.8-3.3 23.5 0 17.1 20.7 17.1 9.7-0.1 18-5.7 8.3-5.6 13.2-13.6 5-8.1 5-14.8 0-7.5-5-13.1-4.9-5.6-13.6-11.9-5.6-4.1-8.1-6.7-2.6-2.6-2.6-4.3 0-2.6 3.6-4.2 3.7-1.6 8.6-1.6 2.9 0 3.7 0.3 0.9 0.3 0.9 1.2 0 0.4-0.8 1.4-0.7 1-0.7 1.6 0 0.7 4.3 4.3 8.6 7.2 14.4 14.5 5.8 7.3 5.8 17.2 0 8.4-6.2 19.4-6.3 11-17.7 18.9-11.4 7.8-26 7.8z"/>
		<path id="Layer" fill-rule="evenodd" class="s4" d="m618.7 151.3q-0.4 14.6-0.4 23.9 0 12.3 1.1 22.4 0.4 3.9 0.4 5.4 0 3.4-1.5 5.9-1.5 2.5-4.3 2.5-3.9 0-4.3-2.8-0.2-3.7-0.5-11.3-0.4-7.7-0.4-15.4l0.3-30.2q-1.1 0-4 0.2-3 0.2-5.7 0.2-5.2 0-5.2-7.1 0-5.1 2.6-5.1 0.8 0 5.1 1.2 4.3 1.3 7.4 1.3l-0.2-60.9q-1.8-0.3-7.2-0.8-5.3-0.5-7.8-2-2.5-1.5-2.5-4.4 0-5.5 2.1-5.6 2.4 0.1 5.9 1.8 0.4 0.2 2.6 1.2 2.1 0.9 6 1.4 1.3-3.5 2.5-4.8 1.2-1.3 4.6-1.3 4.3 0 4.3 1.7 0 0.7-0.6 2.3-0.7 1.6-0.7 3.1 13.4 2 30.3 7.9 16.9 5.9 29.3 15 12.4 9 12.4 19.8 0 15.3-19.8 23.7-19.9 8.4-51.8 10.8zm-0.8-69q0.4 12.5 0.6 33.1 0.2 20.6 0.2 27.2 13 0.1 27.6-3.3 14.7-3.3 24.7-9 10-5.7 10-12.7 0-9-10.3-16.3-10.4-7.4-24.9-12.1-14.6-4.7-27.9-6.9z"/>
		<path id="Layer" class="s4" d="m714.2 36.8q-3.7 0-7.4-3-3.8-3-3.8-4.9 0-2.4 2.3-4.6 2.2-2.1 4.6-2.1 3.2 1.1 5.4 3.4 1.7 1.8 3.9 4.6 2.1 2.8 2.1 3.4 0 3.2-7.1 3.2zm6.5 136.7q-3.1-0.3-4.5-9.7-1.4-9.5-2.9-36-0.8-17.5-1.5-34.2-0.6-16.7-0.8-25.7 0-2.4 0.7-3.6 0.8-1.2 2.9-1.2 5 0 6.3 4.1 1.3 4.1 1.3 15.7l-0.3 25.5q0 21.7 1.3 34.9 0 0.6 2 13.8 1.5 9 1.5 12 0 2.2-1.8 3.4-1.9 1.2-4.2 1z"/>
		<path id="Layer" class="s4" d="m820.7 176.3q-2.2 0-3.7-1-1.5-1-1.5-2.7 0-8.8 1.3-27.4 1.3-19.8 1.3-32.9 0-12.8-0.8-20.8-0.7-8.1-3.5-8.1-7.4 0-16.1 18.2-8.7 18.2-19.9 47.9l-3.2 8.7q-0.9 2.1-3 3.4-2 1.3-4.2 1.3-2.5 0-3.4-0.4-0.9-0.5-1.1-2.6l-1.7-17.7-3.2-31q-1.6-18.5-3.7-32.3-0.6-3.3-0.6-5-0.1-3.2 2.7-5.3 2.9-2 6.5-2 2.2 0 3.1 10.3 1 10.4 2.1 33.4l0.8 11.4q1.8 21.8 2 27.6 0.6-1.3 1.2-2.9 0.5-1.6 1.4-3.6 11.6-30.1 21.8-50.3 10.3-20.1 19.8-20.1 6.6 0 9.1 11.3 2.5 11.3 3.1 29 0.7 19.6 0.7 57.3 0 2.6-2.2 4.4-2.1 1.9-5.1 1.9z"/>
		<path id="Layer" class="s4" d="m926.7 219.4q-9.3 8.8-19.3 14.3-10 5.5-17.4 5.5-4.1 0-5.8-2.1-1.7-2-1.7-4.8 0-2.6 9.7-6 14.7-4.8 27.1-16 9.7-8.6 14.3-19.6 4.5-11 4.5-22.4 0-12.9-1.6-23.7-1.6-10.8-5.1-26.5-3.9-16.6-5.4-28.2-3.6 9.9-11.3 23.9-7.6 14-18.2 26.9-9.9 12.3-18 18.3-8.1 6.1-15.6 6.1-6.5 0-9.6-5.1-3.1-5.1-3.1-13.9 0-14.7 9-34.5 9.1-19.8 22.7-34 13.5-14.3 26.7-14.3 4.5 0.1 7 3.3 2.5 3.2 2.5 7.7 0 5.9-2.4 5.9-0.6 0-1.6-1.7-1-1.6-2.3-2.9-1.3-1.3-2.8-1.3-11 0-22.3 12.3-11.3 12.3-18.7 28.8-7.5 16.5-7.5 27 0 5.8 1.7 8.4 1.6 2.6 5 2.6 5.2 0 12.5-6 7.3-6 17.5-19 9-11.4 16.5-26.6 7.4-15.2 11.3-29 0.4-1.3 1.4-2.1 1-0.9 2.2-0.9 2 0 4 1.2 2.1 1.2 2.1 2.5 0 0.9-0.3 1.8-0.4 1-0.6 1.2 1.5 11.9 7.1 36.9 4.1 17.6 6.2 29.6 2 11.9 2 23.4 0 16.8-6.7 30.6c-4.5 9.1-9.7 16.6-15.7 22.4z"/>
	</g>
</svg>